<svg xmlns="http://www.w3.org/2000/svg" viewBox="0 0 20 20"><defs><style>.cls-1{fill:#fff;}</style></defs><title>home_icon_1</title><g id="Layer_2" data-name="Layer 2"><g id="Layer_1-2" data-name="Layer 1"><path class="cls-1" d="M19.82,9.19,12,.9A2.76,2.76,0,0,0,8,.9L.18,9.19a.72.72,0,0,0,0,1,.61.61,0,0,0,.89,0l.49-.53v8.47A1.87,1.87,0,0,0,3.36,20H6.48a.4.4,0,0,0,.39-.42V13.42a2,2,0,0,1,2-2.09h2.34a2,2,0,0,1,2,2.09v6.16a.4.4,0,0,0,.39.42h3.12a1.87,1.87,0,0,0,1.8-1.92V9.61l.49.53a.63.63,0,0,0,.45.19.61.61,0,0,0,.44-.19.72.72,0,0,0,0-1Z"/></g></g></svg>