<svg xmlns="http://www.w3.org/2000/svg" viewBox="0 0 20 20"><defs><style>.cls-1{fill:#fff;}</style></defs><title>search_icon</title><g id="Layer_2" data-name="Layer 2"><g id="Layer_1-2" data-name="Layer 1"><path class="cls-1" d="M19.36,16.27,14.12,11a7.51,7.51,0,0,0-1.26-8.78A7.52,7.52,0,0,0,7.67,0H7.5a7.5,7.5,0,0,0,0,15h.17A7.5,7.5,0,0,0,11,14.12l5.24,5.24a2.18,2.18,0,1,0,3.09-3.09ZM7.64,13.75H7.5a6.25,6.25,0,0,1,0-12.5h.14a6.25,6.25,0,0,1,0,12.5Zm10.83,4.73a.94.94,0,0,1-.66.27,1,1,0,0,1-.66-.27l-5-5.05a8.19,8.19,0,0,0,.76-.68,8.39,8.39,0,0,0,.56-.65l5.06,5a1,1,0,0,1,.27.66,1,1,0,0,1-.28.67Z"/><path class="cls-1" d="M7.5,2.5a5,5,0,1,0,5,5A5,5,0,0,0,7.5,2.5Zm0,8.75A3.75,3.75,0,1,1,11.25,7.5,3.75,3.75,0,0,1,7.5,11.25Z"/></g></g></svg>