<svg xmlns="http://www.w3.org/2000/svg" viewBox="0 0 20 20"><defs><style>.cls-1{fill:#fff;}</style></defs><title>user_icon</title><g id="Layer_2" data-name="Layer 2"><g id="Layer_1-2" data-name="Layer 1"><path class="cls-1" d="M10,0A10,10,0,1,0,20,10,10,10,0,0,0,10,0Zm0,18.83A8.83,8.83,0,1,1,18.83,10,8.84,8.84,0,0,1,10,18.83Z"/><path class="cls-1" d="M10,10.55a4.11,4.11,0,1,0-4.1-4.1A4.11,4.11,0,0,0,10,10.55Zm0-7A2.93,2.93,0,1,1,7.07,6.45,2.93,2.93,0,0,1,10,3.52Z"/><path class="cls-1" d="M16.59,13.1a4.1,4.1,0,0,0-3.07-1.38h-7A4.1,4.1,0,0,0,3.41,13.1l-.28.32.21.36a7.66,7.66,0,0,0,13.32,0l.21-.36ZM10,16.48a6.51,6.51,0,0,1-5.41-2.9,3,3,0,0,1,1.89-.69h7a3,3,0,0,1,1.89.69A6.51,6.51,0,0,1,10,16.48Z"/></g></g></svg>